<?xml version="1.0" standalone="no"?>
<!DOCTYPE svg PUBLIC "-//W3C//DTD SVG 20010904//EN"
 "http://www.w3.org/TR/2001/REC-SVG-20010904/DTD/svg10.dtd">
<svg version="1.0" xmlns="http://www.w3.org/2000/svg"
 width="159.000000pt" height="76.000000pt" viewBox="0 0 159.000000 76.000000"
 preserveAspectRatio="xMidYMid meet">

<g transform="translate(0.000000,76.000000) scale(0.100000,-0.100000)"
fill="#000000" stroke="none">
<path d="M265 695 c-194 -103 -215 -134 -215 -312 0 -158 21 -194 161 -274
105 -60 143 -71 201 -58 53 12 223 112 244 144 15 22 17 23 49 9 27 -11 101
-14 362 -14 195 0 343 4 365 10 49 14 94 53 119 103 17 32 20 54 17 102 -4 72
-30 117 -86 156 l-36 24 -360 3 c-259 2 -368 -1 -389 -9 -25 -11 -31 -9 -55
14 -33 31 -164 109 -211 125 -56 20 -96 14 -166 -23z m241 -46 c51 -28 103
-62 115 -75 l22 -23 -26 -31 c-28 -33 -47 -87 -47 -135 0 -36 31 -106 58 -133
18 -18 19 -22 6 -41 -15 -21 -154 -107 -212 -130 -47 -19 -92 -8 -185 45 -148
84 -157 99 -157 259 0 170 11 186 194 284 85 45 119 42 232 -20z m424 -229
c15 -15 20 -33 20 -69 l0 -48 -47 -1 c-81 -2 -121 62 -71 115 27 29 71 30 98
3z m160 7 c0 -7 -16 -29 -36 -48 l-35 -34 38 -5 c25 -3 38 -10 38 -20 0 -11
-15 -16 -59 -18 -80 -4 -89 8 -43 56 20 21 37 41 37 45 0 4 -16 7 -35 7 -24 0
-35 5 -35 15 0 12 14 15 65 15 47 0 65 -4 65 -13z m138 -7 c17 -16 22 -32 22
-69 l0 -48 -47 -1 c-81 -2 -121 62 -71 115 27 28 67 30 96 3z m150 0 c17 -16
22 -32 22 -69 l0 -48 -47 -1 c-81 -2 -121 62 -71 115 27 28 67 30 96 3z m122
5 c0 -8 -5 -15 -12 -15 -26 0 -48 -34 -48 -72 0 -55 -24 -45 -28 11 -3 34 2
49 19 67 25 27 69 33 69 9z"/>
<path d="M256 494 c-10 -14 -16 -37 -14 -52 l3 -27 105 -1 c58 -1 110 -3 115
-4 19 -6 45 12 45 32 0 11 -8 33 -17 49 -17 29 -17 29 -119 29 -98 0 -102 -1
-118 -26z"/>
<path d="M260 330 c0 -74 9 -80 119 -80 99 0 111 9 111 86 0 41 -4 54 -15 54
-10 0 -15 -11 -15 -35 l0 -35 -85 0 -85 0 0 35 c0 24 -5 35 -15 35 -12 0 -15
-13 -15 -60z"/>
<path d="M856 394 c-9 -8 -16 -19 -16 -24 0 -11 29 -40 40 -40 11 0 40 29 40
40 0 11 -29 40 -40 40 -5 0 -16 -7 -24 -16z"/>
<path d="M1156 394 c-9 -8 -16 -19 -16 -24 0 -11 29 -40 40 -40 11 0 40 29 40
40 0 11 -29 40 -40 40 -5 0 -16 -7 -24 -16z"/>
<path d="M1306 394 c-9 -8 -16 -19 -16 -24 0 -11 29 -40 40 -40 11 0 40 29 40
40 0 11 -29 40 -40 40 -5 0 -16 -7 -24 -16z"/>
<path d="M7 3 c7 -2 19 -2 26 0 6 3 1 5 -13 5 -14 0 -19 -2 -13 -5z"/>
<path d="M478 3 c204 -2 540 -2 745 0 204 1 37 2 -373 2 -410 0 -577 -1 -372
-2z"/>
</g>
</svg>
